#!OML:ASF X:\für Bonn\!DataBase\2005_08_11_Bastian_Final\c3d\Bastian.ASF
:FULLY-SPECIFIED
:DEGREES
381
root -2.44278 1.42028 21.1733 -987.531 -2.63838 -177.416
lowerback 38.4745 4.49564 7.00177
upperback 29.0552 -5.57885 2.88271
thorax 14.6815 -8.8171 -0.990862
lowerneck 6.59612 2.95171 -4.77226
upperneck 5.56627 3.93008 7.92227
head 0.354066 2.09483 3.31363
rclavicle 3.19795e-014 -3.29983e-014
rhumerus -40.3824 37.8018 -73.7651
rradius 58.1974
rwrist 5.87959
rhand -32.1955 1.42016
rfingers 7.12502
rthumb -5.4375 -28.4901
lclavicle 3.19795e-014 -3.29983e-014
lhumerus -47.0602 -9.24249 72.5013
lradius 54.908
lwrist 15.4489
lhand -36.4103 -23.8115
lfingers 7.12502
lthumb -9.50571 5.95412
rfemur -15.1564 6.53576 23.3808
rtibia 33.6275
rfoot -3.1312 -18.4252
rtoes -4.73755
lfemur -21.5723 2.15645 -17.3317
ltibia 43.0842
lfoot 11.8657 6.81853
ltoes -3.54103
382
root -2.44341 1.41302 21.1699 -987.844 -2.57417 -177.556
lowerback 38.0636 4.46052 6.93888
upperback 29.0337 -5.53335 2.83507
thorax 14.7741 -8.73917 -1.04078
lowerneck 6.89094 2.89559 -5.00046
upperneck 5.69684 3.84445 7.96948
head 0.345516 2.05263 3.37273
rclavicle 1.20016e-014 -2.74323e-014
rhumerus -40.1541 37.1371 -73.7246
rradius 57.8277
rwrist 6.50687
rhand -32.4621 1.4908
rfingers 7.12502
rthumb -5.69489 -28.4127
lclavicle 1.20016e-014 -2.74323e-014
lhumerus -47.3849 -9.00467 72.5415
lradius 55.4409
lwrist 14.8934
lhand -36.8783 -24.071
lfingers 7.12502
lthumb -9.95719 5.67351
rfemur -14.8611 6.52558 23.4741
rtibia 33.7318
rfoot -3.33041 -18.3819
rtoes -5.02105
lfemur -20.5713 1.98169 -17.2607
ltibia 41.8191
lfoot 12.018 6.8881
ltoes -4.42181
383
root -2.44359 1.40661 21.1662 -988.136 -2.53436 -177.682
lowerback 37.6134 4.41681 6.86902
upperback 29.0192 -5.49915 2.78118
thorax 14.8908 -8.6634 -1.09582
lowerneck 7.16439 2.85389 -5.32059
upperneck 5.79226 3.76961 8.1176
head 0.324568 2.01347 3.48454
rclavicle 9.86469e-015 -1.78906e-014
rhumerus -40.0431 36.4482 -73.7923
rradius 57.548
rwrist 6.90604
rhand -32.997 1.6597
rfingers 7.12502
rthumb -6.21133 -28.2292
lclavicle 9.86469e-015 -1.78906e-014
lhumerus -47.6853 -8.74644 72.5662
lradius 55.9557
lwrist 14.3477
lhand -37.2772 -24.4374
lfingers 7.12502
lthumb -10.3421 5.28832
rfemur -14.598 6.47106 23.5431
rtibia 33.8449
rfoot -3.47726 -18.2912
rtoes -5.4163
lfemur -19.6207 1.82939 -17.2219
ltibia 40.6184
lfoot 12.1217 6.90748
ltoes -5.40034
384
root -2.44299 1.40106 21.1622 -988.427 -2.51895 -177.792
lowerback 37.1728 4.36495 6.80084
upperback 28.9875 -5.45682 2.71354
thorax 14.9812 -8.57425 -1.16198
lowerneck 7.4487 2.80516 -5.57399
upperneck 5.89299 3.69034 8.24069
head 0.306054 1.97389 3.57567
rclavicle -6.60959e-015 -1.68967e-014
rhumerus -40.0438 35.6296 -73.9344
rradius 57.2911
rwrist 7.17077
rhand -33.6562 2.05891
rfingers 7.12502
rthumb -6.8477 -27.8103
lclavicle -6.60959e-015 -1.68967e-014
lhumerus -48.0092 -8.51465 72.5506
lradius 56.4353
lwrist 13.7055
lhand -37.6629 -24.7885
lfingers 7.12502
lthumb -10.7141 4.91833
rfemur -14.3284 6.41764 23.5878
rtibia 33.9488
rfoot -3.61308 -18.2228
rtoes -5.73487
lfemur -18.7152 1.68503 -17.2088
ltibia 39.496
lfoot 12.2522 6.84794
ltoes -5.95116
385
root -2.44168 1.39578 21.1596 -988.728 -2.45419 -177.909
lowerback 36.748 4.30811 6.75261
upperback 28.9448 -5.41905 2.66447
thorax 15.057 -8.48953 -1.21437
lowerneck 7.78726 2.76289 -5.84024
upperneck 5.95352 3.61605 8.33045
head 0.265579 1.93424 3.65683
rclavicle 8.29926e-015 -1.74931e-014
rhumerus -40.1148 34.826 -74.1031
rradius 57.0159
rwrist 7.33081
rhand -34.4637 2.66669
rfingers 7.12502
rthumb -7.62714 -27.1758
lclavicle 8.29926e-015 -1.74931e-014
lhumerus -48.2798 -8.1024 72.5185
lradius 56.7492
lwrist 12.8568
lhand -37.9823 -25.2222
lfingers 7.12502
lthumb -11.0222 4.46841
rfemur -14.0394 6.40774 23.6997
rtibia 34.0459
rfoot -3.75836 -18.208
rtoes -6.13712
lfemur -17.8304 1.54661 -17.1347
ltibia 38.4572
lfoot 12.3251 6.77325
ltoes -6.0427
386
root -2.44052 1.38958 21.1583 -989.033 -2.41404 -178.005
lowerback 36.3217 4.24775 6.7022
upperback 28.9182 -5.40063 2.62848
thorax 15.16 -8.42195 -1.25232
lowerneck 8.04521 2.72482 -6.15838
upperneck 6.01483 3.54089 8.44896
head 0.237878 1.89294 3.76016
rclavicle -1.66482e-014 -6.36111e-015
rhumerus -40.2229 33.8874 -74.2237
rradius 56.88
rwrist 7.45714
rhand -35.2669 3.42179
rfingers 7.12502
rthumb -8.40236 -26.3911
lclavicle -1.66482e-014 -6.36111e-015
lhumerus -48.4842 -7.67866 72.4836
lradius 57.0021
lwrist 11.9786
lhand -38.1863 -25.6406
lfingers 7.12502
lthumb -11.219 4.03944
rfemur -13.7419 6.35176 23.7755
rtibia 34.1271
rfoot -3.88875 -18.1701
rtoes -6.48038
lfemur -16.9944 1.40161 -17.0945
ltibia 37.496
lfoot 12.3894 6.61438
ltoes -6.23282
387
root -2.43912 1.38422 21.1578 -989.336 -2.39826 -178.134
lowerback 35.9166 4.19611 6.64414
upperback 28.8782 -5.35834 2.56293
thorax 15.2346 -8.33505 -1.31704
lowerneck 8.30541 2.67588 -6.38909
upperneck 6.10577 3.4599 8.56724
head 0.221906 1.85256 3.84759
rclavicle -5.96354e-015 -1.19271e-014
rhumerus -40.447 32.7553 -74.3699
rradius 56.8688
rwrist 7.74145
rhand -35.9902 4.36764
rfingers 7.12502
rthumb -9.10031 -25.416
lclavicle -5.96354e-015 -1.19271e-014
lhumerus -48.6917 -7.24214 72.4005
lradius 57.2212
lwrist 10.9815
lhand -38.3502 -26.0737
lfingers 7.12502
lthumb -11.377 3.59763
rfemur -13.4351 6.33331 23.8304
rtibia 34.186
rfoot -4.00361 -18.1433
rtoes -6.87818
lfemur -16.1865 1.3147 -17.0874
ltibia 36.6101
lfoot 12.4473 6.38103
ltoes -6.34134
388
root -2.43752 1.37841 21.1571 -989.64 -2.35793 -178.253
lowerback 35.5169 4.13194 6.60489
upperback 28.8311 -5.32922 2.50748
thorax 15.302 -8.25393 -1.37642
lowerneck 8.52589 2.61992 -6.54872
upperneck 6.24193 3.37647 8.60384
head 0.231345 1.8138 3.89372
rclavicle -8.94531e-016 -1.86858e-014
rhumerus -40.6903 31.4833 -74.4586
rradius 56.9104
rwrist 8.28704
rhand -36.5448 5.42602
rfingers 7.12502
rthumb -9.63544 -24.3336
lclavicle -8.94531e-016 -1.86858e-014
lhumerus -48.9243 -6.83631 72.3261
lradius 57.4603
lwrist 9.91338
lhand -38.4173 -26.3913
lfingers 7.12502
lthumb -11.4418 3.27646
rfemur -13.1251 6.28436 23.9177
rtibia 34.2309
rfoot -4.08664 -18.1341
rtoes -7.28492
lfemur -15.4194 1.25122 -17.0506
ltibia 35.7851
lfoot 12.4634 6.14019
ltoes -6.28881
